<svg xmlns="http://www.w3.org/2000/svg" width="512" height="512" viewBox="0 0 512 512" role="img" aria-label="PRAVAH logo">
  <defs>
    <linearGradient id="g" x1="0" y1="0" x2="1" y2="1">
      <stop offset="0" stop-color="#FF7A00"/>
      <stop offset="0.55" stop-color="#FF4D6D"/>
      <stop offset="1" stop-color="#00C2FF"/>
    </linearGradient>
    <filter id="glow" x="-30%" y="-30%" width="160%" height="160%">
      <feGaussianBlur in="SourceGraphic" stdDeviation="8" result="b"/>
      <feColorMatrix in="b" type="matrix"
        values="1 0 0 0 0
                0 1 0 0 0
                0 0 1 0 0
                0 0 0 .55 0" result="c"/>
      <feMerge>
        <feMergeNode in="c"/>
        <feMergeNode in="SourceGraphic"/>
      </feMerge>
    </filter>
  </defs>

  <!-- Outer mark -->
  <rect x="64" y="64" width="384" height="384" rx="120" fill="url(#g)" filter="url(#glow)"/>

  <!-- Inner glass -->
  <rect x="112" y="112" width="288" height="288" rx="96" fill="rgba(11,16,32,0.55)" stroke="rgba(255,255,255,0.22)" stroke-width="6"/>

  <!-- Sun -->
  <circle cx="256" cy="186" r="28" fill="rgba(255,255,255,0.95)"/>
  <g stroke="rgba(255,255,255,0.85)" stroke-width="6" stroke-linecap="round">
    <path d="M256 138v-18"/>
    <path d="M256 252v-18"/>
    <path d="M208 186h-18"/>
    <path d="M322 186h-18"/>
    <path d="M222 152l-12-12"/>
    <path d="M302 232l-12-12"/>
    <path d="M222 220l-12 12"/>
    <path d="M302 140l-12 12"/>
  </g>

  <!-- Palace silhouette (Rajasthan vibe) -->
  <path
    d="M154 334
       v-70
       l22-16 22 16v22h18v-34l18-14 18 14v34h18v-22l22-16 22 16v70
       h-22v-38h-22v38h-46v-54h-18v54h-46v-38h-22v38z"
    fill="rgba(255,255,255,0.92)"
  />

  <!-- Jaali cutouts -->
  <g opacity="0.38" fill="#0B1020">
    <circle cx="196" cy="312" r="6"/>
    <circle cx="216" cy="312" r="6"/>
    <circle cx="236" cy="312" r="6"/>
    <circle cx="276" cy="312" r="6"/>
    <circle cx="296" cy="312" r="6"/>
    <circle cx="316" cy="312" r="6"/>
  </g>
</svg>
